General
Complete name                    : A Perfect World.mkv
Format                           : Matroska
File size                        : 1.89 GiB
Duration                         : 2h 12mn
Overall bit rate                 : 2 041 Kbps


Video
ID                               : 1
Format                           : AVC
Duration                         : 2h 12mn
Bit rate                         : 1 232 Kbps
Width                            : 718 pixels
Height                           : 432 pixels
Display aspect ratio             : 2.35:1
Frame rate                       : 25.000 fps
Resolution                       : 8 bits
Colorimetry                      : 4:2:0
Scan type                        : Progressive
Bits/(Pixel*Frame)               : 0.159
Stream size                      : 1.14 GiB (60%)
Writing library                  : x264 core 79


Audio #1
ID                               : 2
Format                           : AC-3
Format/Info                      : Audio Coding 3
Codec ID                         : A_AC3
Duration                         : 2h 12mn
Bit rate mode                    : Constant
Bit rate                         : 384 Kbps
Channel(s)                       : 6 channels
Channel positions                : Front: L C R, Surround: L R, LFE
Sampling rate                    : 48.0 KHz
Stream size                      : 364 MiB (19%)
Language                         : English

Audio #2
ID                               : 3
Format                           : AC-3
Format/Info                      : Audio Coding 3
Format profile                   : Dolby Digital
Codec ID                         : A_AC3
Duration                         : 2h 12mn
Bit rate mode                    : Constant
Bit rate                         : 192 Kbps
Channel(s)                       : 2 channels
Channel positions                : L R
Sampling rate                    : 48.0 KHz
Stream size                      : 182 MiB (9%)
Language                         : German

Audio #3
ID                               : 4
Format                           : AC-3
Format/Info                      : Audio Coding 3
Format profile                   : Dolby Digital
Codec ID                         : A_AC3
Duration                         : 2h 12mn
Bit rate mode                    : Constant
Bit rate                         : 192 Kbps
Channel(s)                       : 2 channels
Channel positions                : L R
Sampling rate                    : 48.0 KHz
Stream size                      : 182 MiB (9%)
Language                         : Spanish

Text #1
Language                         : English

Text #2
Language                         : German

Text #3
Language                         : Spanish

Text #4
Language                         : Swedish

Text #5
Language                         : Norwegian

Text #6
Language                         : Danish

Text #7
Language                         : Finnish

Text #8
Language                         : Portuguese

Text #9
Language                         : ???xxxx????

Text #10
Language                         : Polish

Text #11
Language                         : Greek

Text #12
Language                         : Czech

Text #13
Language                         : Turkish

Text #14
Language                         : Hungarian

Text #15
Language                         : Icelandic

Text #16
Language                         : Croatian

Text #17
Language                         : French

Text #18
Language                         : Italian



